<mxfile host="app.diagrams.net" modified="2020-12-23T07:49:57.341Z" agent="5.0 (Macintosh; Intel Mac OS X 10_15_7) AppleWebKit/537.36 (KHTML, like Gecko) Chrome/87.0.4280.88 Safari/537.36" etag="VkDkdBlsLtsJzYnCJVcg" version="13.10.6" type="github">
  <diagram id="UXJQ_Vv7PmvYswgxJ0wq" name="Page-1">
    <mxGraphModel dx="1878" dy="827" grid="1" gridSize="10" guides="1" tooltips="1" connect="1" arrows="1" fold="1" page="1" pageScale="1" pageWidth="2339" pageHeight="3300" math="0" shadow="0">
      <root>
        <mxCell id="0" />
        <mxCell id="1" parent="0" />
        <mxCell id="bDwMY-FAT61xxmsrDLmd-28" value="" style="edgeStyle=orthogonalEdgeStyle;rounded=0;orthogonalLoop=1;jettySize=auto;html=1;" edge="1" parent="1" source="bDwMY-FAT61xxmsrDLmd-12" target="bDwMY-FAT61xxmsrDLmd-13">
          <mxGeometry relative="1" as="geometry" />
        </mxCell>
        <mxCell id="bDwMY-FAT61xxmsrDLmd-12" value="personlist&lt;br&gt;" style="rounded=1;whiteSpace=wrap;html=1;" vertex="1" parent="1">
          <mxGeometry x="290" y="280" width="120" height="60" as="geometry" />
        </mxCell>
        <mxCell id="bDwMY-FAT61xxmsrDLmd-27" value="" style="edgeStyle=orthogonalEdgeStyle;rounded=0;orthogonalLoop=1;jettySize=auto;html=1;" edge="1" parent="1" source="bDwMY-FAT61xxmsrDLmd-13" target="bDwMY-FAT61xxmsrDLmd-14">
          <mxGeometry relative="1" as="geometry" />
        </mxCell>
        <mxCell id="bDwMY-FAT61xxmsrDLmd-50" style="edgeStyle=orthogonalEdgeStyle;rounded=0;orthogonalLoop=1;jettySize=auto;html=1;exitX=0;exitY=0.5;exitDx=0;exitDy=0;entryX=0;entryY=0.75;entryDx=0;entryDy=0;" edge="1" parent="1" source="bDwMY-FAT61xxmsrDLmd-13" target="bDwMY-FAT61xxmsrDLmd-40">
          <mxGeometry relative="1" as="geometry" />
        </mxCell>
        <mxCell id="bDwMY-FAT61xxmsrDLmd-13" value="get person relation list p -&amp;gt; &lt;br&gt;{p1,p2..}" style="rounded=1;whiteSpace=wrap;html=1;" vertex="1" parent="1">
          <mxGeometry x="290" y="390" width="120" height="60" as="geometry" />
        </mxCell>
        <mxCell id="bDwMY-FAT61xxmsrDLmd-26" value="" style="edgeStyle=orthogonalEdgeStyle;rounded=0;orthogonalLoop=1;jettySize=auto;html=1;" edge="1" parent="1" source="bDwMY-FAT61xxmsrDLmd-14" target="bDwMY-FAT61xxmsrDLmd-25">
          <mxGeometry relative="1" as="geometry" />
        </mxCell>
        <mxCell id="bDwMY-FAT61xxmsrDLmd-14" value="get asst count &amp;amp;&amp;amp; face count&lt;br&gt;" style="rounded=1;whiteSpace=wrap;html=1;" vertex="1" parent="1">
          <mxGeometry x="290" y="490" width="120" height="60" as="geometry" />
        </mxCell>
        <mxCell id="bDwMY-FAT61xxmsrDLmd-20" value="" style="edgeStyle=orthogonalEdgeStyle;rounded=0;orthogonalLoop=1;jettySize=auto;html=1;" edge="1" parent="1" source="bDwMY-FAT61xxmsrDLmd-17" target="bDwMY-FAT61xxmsrDLmd-19">
          <mxGeometry relative="1" as="geometry" />
        </mxCell>
        <mxCell id="bDwMY-FAT61xxmsrDLmd-47" style="edgeStyle=orthogonalEdgeStyle;rounded=0;orthogonalLoop=1;jettySize=auto;html=1;exitX=1;exitY=0.5;exitDx=0;exitDy=0;entryX=0.5;entryY=1;entryDx=0;entryDy=0;" edge="1" parent="1" source="bDwMY-FAT61xxmsrDLmd-17" target="bDwMY-FAT61xxmsrDLmd-45">
          <mxGeometry relative="1" as="geometry">
            <Array as="points">
              <mxPoint x="780" y="450" />
              <mxPoint x="780" y="920" />
              <mxPoint x="570" y="920" />
            </Array>
          </mxGeometry>
        </mxCell>
        <mxCell id="bDwMY-FAT61xxmsrDLmd-17" value="face count&lt;br&gt;agg x1" style="whiteSpace=wrap;html=1;rounded=1;" vertex="1" parent="1">
          <mxGeometry x="610" y="420" width="120" height="60" as="geometry" />
        </mxCell>
        <mxCell id="bDwMY-FAT61xxmsrDLmd-46" style="edgeStyle=orthogonalEdgeStyle;rounded=0;orthogonalLoop=1;jettySize=auto;html=1;exitX=1;exitY=0.5;exitDx=0;exitDy=0;entryX=1;entryY=0.5;entryDx=0;entryDy=0;" edge="1" parent="1" source="bDwMY-FAT61xxmsrDLmd-19" target="bDwMY-FAT61xxmsrDLmd-45">
          <mxGeometry relative="1" as="geometry" />
        </mxCell>
        <mxCell id="bDwMY-FAT61xxmsrDLmd-19" value="asset count&lt;br&gt;agg x1" style="whiteSpace=wrap;html=1;rounded=1;" vertex="1" parent="1">
          <mxGeometry x="610" y="560" width="120" height="60" as="geometry" />
        </mxCell>
        <mxCell id="bDwMY-FAT61xxmsrDLmd-22" value="" style="shape=flexArrow;endArrow=classic;html=1;" edge="1" parent="1">
          <mxGeometry width="50" height="50" relative="1" as="geometry">
            <mxPoint x="420" y="510" as="sourcePoint" />
            <mxPoint x="570" y="510" as="targetPoint" />
          </mxGeometry>
        </mxCell>
        <mxCell id="bDwMY-FAT61xxmsrDLmd-23" value="loop by relation list&lt;br&gt;" style="text;html=1;align=center;verticalAlign=middle;resizable=0;points=[];autosize=1;" vertex="1" parent="1">
          <mxGeometry x="430" y="470" width="110" height="20" as="geometry" />
        </mxCell>
        <mxCell id="bDwMY-FAT61xxmsrDLmd-24" value="agg count n*2 (n= length of relation list)" style="text;html=1;align=center;verticalAlign=middle;resizable=0;points=[];autosize=1;" vertex="1" parent="1">
          <mxGeometry x="420" y="530" width="220" height="20" as="geometry" />
        </mxCell>
        <mxCell id="bDwMY-FAT61xxmsrDLmd-25" value="return&lt;br&gt;" style="whiteSpace=wrap;html=1;rounded=1;" vertex="1" parent="1">
          <mxGeometry x="290" y="630" width="120" height="60" as="geometry" />
        </mxCell>
        <mxCell id="bDwMY-FAT61xxmsrDLmd-31" value="" style="edgeStyle=orthogonalEdgeStyle;rounded=0;orthogonalLoop=1;jettySize=auto;html=1;" edge="1" parent="1" source="bDwMY-FAT61xxmsrDLmd-29" target="bDwMY-FAT61xxmsrDLmd-30">
          <mxGeometry relative="1" as="geometry" />
        </mxCell>
        <mxCell id="bDwMY-FAT61xxmsrDLmd-29" value="personlist&lt;br&gt;" style="rounded=1;whiteSpace=wrap;html=1;" vertex="1" parent="1">
          <mxGeometry x="960" y="280" width="120" height="60" as="geometry" />
        </mxCell>
        <mxCell id="bDwMY-FAT61xxmsrDLmd-33" value="" style="edgeStyle=orthogonalEdgeStyle;rounded=0;orthogonalLoop=1;jettySize=auto;html=1;" edge="1" parent="1" source="bDwMY-FAT61xxmsrDLmd-30" target="bDwMY-FAT61xxmsrDLmd-32">
          <mxGeometry relative="1" as="geometry" />
        </mxCell>
        <mxCell id="bDwMY-FAT61xxmsrDLmd-30" value="get person relation list &amp;amp;&amp;amp; assert count &amp;amp;&amp;amp; face count" style="whiteSpace=wrap;html=1;rounded=1;" vertex="1" parent="1">
          <mxGeometry x="960" y="420" width="120" height="60" as="geometry" />
        </mxCell>
        <mxCell id="bDwMY-FAT61xxmsrDLmd-32" value="return&lt;br&gt;" style="whiteSpace=wrap;html=1;rounded=1;" vertex="1" parent="1">
          <mxGeometry x="960" y="560" width="120" height="60" as="geometry" />
        </mxCell>
        <mxCell id="bDwMY-FAT61xxmsrDLmd-34" value="" style="shape=flexArrow;endArrow=classic;html=1;" edge="1" parent="1">
          <mxGeometry width="50" height="50" relative="1" as="geometry">
            <mxPoint x="1110" y="460" as="sourcePoint" />
            <mxPoint x="1260" y="460" as="targetPoint" />
          </mxGeometry>
        </mxCell>
        <mxCell id="bDwMY-FAT61xxmsrDLmd-55" value="" style="edgeStyle=orthogonalEdgeStyle;rounded=0;orthogonalLoop=1;jettySize=auto;html=1;" edge="1" parent="1" source="bDwMY-FAT61xxmsrDLmd-35" target="bDwMY-FAT61xxmsrDLmd-54">
          <mxGeometry relative="1" as="geometry" />
        </mxCell>
        <mxCell id="bDwMY-FAT61xxmsrDLmd-57" style="edgeStyle=orthogonalEdgeStyle;rounded=0;orthogonalLoop=1;jettySize=auto;html=1;exitX=1;exitY=0.5;exitDx=0;exitDy=0;entryX=1;entryY=0.5;entryDx=0;entryDy=0;" edge="1" parent="1" source="bDwMY-FAT61xxmsrDLmd-35" target="bDwMY-FAT61xxmsrDLmd-41">
          <mxGeometry relative="1" as="geometry" />
        </mxCell>
        <mxCell id="bDwMY-FAT61xxmsrDLmd-35" value="agg asset count &amp;amp;&amp;amp; query person relation" style="rounded=1;whiteSpace=wrap;html=1;" vertex="1" parent="1">
          <mxGeometry x="1280" y="370" width="120" height="60" as="geometry" />
        </mxCell>
        <mxCell id="bDwMY-FAT61xxmsrDLmd-36" value="1 agg , 1 &lt;br&gt;query count" style="text;html=1;align=center;verticalAlign=middle;resizable=0;points=[];autosize=1;" vertex="1" parent="1">
          <mxGeometry x="1110" y="425" width="80" height="30" as="geometry" />
        </mxCell>
        <mxCell id="bDwMY-FAT61xxmsrDLmd-37" value="person : person id relation" style="text;html=1;align=center;verticalAlign=middle;resizable=0;points=[];autosize=1;shadow=1;rounded=1;glass=1;sketch=1;" vertex="1" parent="1">
          <mxGeometry x="495" y="710" width="150" height="20" as="geometry" />
        </mxCell>
        <mxCell id="bDwMY-FAT61xxmsrDLmd-38" value="person :person id relation&lt;br&gt;&amp;nbsp; &amp;nbsp; &amp;nbsp;assert count" style="text;html=1;align=center;verticalAlign=middle;resizable=0;points=[];autosize=1;" vertex="1" parent="1">
          <mxGeometry x="1160" y="790" width="150" height="30" as="geometry" />
        </mxCell>
        <mxCell id="bDwMY-FAT61xxmsrDLmd-40" value="es person index&lt;br&gt;" style="rounded=0;whiteSpace=wrap;html=1;shadow=1;" vertex="1" parent="1">
          <mxGeometry x="510" y="750" width="120" height="60" as="geometry" />
        </mxCell>
        <mxCell id="bDwMY-FAT61xxmsrDLmd-41" value="es person index" style="rounded=0;whiteSpace=wrap;html=1;shadow=1;" vertex="1" parent="1">
          <mxGeometry x="1175" y="840" width="120" height="60" as="geometry" />
        </mxCell>
        <mxCell id="bDwMY-FAT61xxmsrDLmd-45" value="es face index" style="rounded=0;whiteSpace=wrap;html=1;shadow=1;" vertex="1" parent="1">
          <mxGeometry x="510" y="840" width="120" height="60" as="geometry" />
        </mxCell>
        <mxCell id="bDwMY-FAT61xxmsrDLmd-48" value="agg" style="text;html=1;align=center;verticalAlign=middle;resizable=0;points=[];autosize=1;" vertex="1" parent="1">
          <mxGeometry x="780" y="490" width="40" height="20" as="geometry" />
        </mxCell>
        <mxCell id="bDwMY-FAT61xxmsrDLmd-49" value="agg" style="text;html=1;align=center;verticalAlign=middle;resizable=0;points=[];autosize=1;" vertex="1" parent="1">
          <mxGeometry x="710" y="680" width="40" height="20" as="geometry" />
        </mxCell>
        <mxCell id="bDwMY-FAT61xxmsrDLmd-51" value="query" style="text;html=1;align=center;verticalAlign=middle;resizable=0;points=[];autosize=1;" vertex="1" parent="1">
          <mxGeometry x="210" y="440" width="50" height="20" as="geometry" />
        </mxCell>
        <mxCell id="bDwMY-FAT61xxmsrDLmd-53" value="es face index" style="rounded=0;whiteSpace=wrap;html=1;shadow=1;" vertex="1" parent="1">
          <mxGeometry x="1170" y="700" width="120" height="60" as="geometry" />
        </mxCell>
        <mxCell id="bDwMY-FAT61xxmsrDLmd-59" style="edgeStyle=orthogonalEdgeStyle;rounded=0;orthogonalLoop=1;jettySize=auto;html=1;exitX=1;exitY=0.5;exitDx=0;exitDy=0;entryX=1;entryY=0.5;entryDx=0;entryDy=0;" edge="1" parent="1" source="bDwMY-FAT61xxmsrDLmd-54" target="bDwMY-FAT61xxmsrDLmd-53">
          <mxGeometry relative="1" as="geometry">
            <Array as="points">
              <mxPoint x="1480" y="540" />
              <mxPoint x="1480" y="730" />
            </Array>
          </mxGeometry>
        </mxCell>
        <mxCell id="bDwMY-FAT61xxmsrDLmd-54" value="face aggs" style="whiteSpace=wrap;html=1;rounded=1;" vertex="1" parent="1">
          <mxGeometry x="1280" y="510" width="120" height="60" as="geometry" />
        </mxCell>
        <mxCell id="bDwMY-FAT61xxmsrDLmd-58" value="query &amp;amp;&amp;amp; agg" style="text;html=1;align=center;verticalAlign=middle;resizable=0;points=[];autosize=1;" vertex="1" parent="1">
          <mxGeometry x="1415" y="410" width="90" height="20" as="geometry" />
        </mxCell>
        <mxCell id="bDwMY-FAT61xxmsrDLmd-60" value="query &amp;amp;&amp;amp; aggs" style="text;html=1;align=center;verticalAlign=middle;resizable=0;points=[];autosize=1;" vertex="1" parent="1">
          <mxGeometry x="1475" y="540" width="90" height="20" as="geometry" />
        </mxCell>
        <mxCell id="bDwMY-FAT61xxmsrDLmd-61" value="" style="endArrow=none;html=1;" edge="1" parent="1">
          <mxGeometry width="50" height="50" relative="1" as="geometry">
            <mxPoint x="880" y="1750" as="sourcePoint" />
            <mxPoint x="890" y="40" as="targetPoint" />
          </mxGeometry>
        </mxCell>
        <mxCell id="bDwMY-FAT61xxmsrDLmd-62" value="" style="endArrow=none;dashed=1;html=1;dashPattern=1 3;strokeWidth=2;" edge="1" parent="1">
          <mxGeometry width="50" height="50" relative="1" as="geometry">
            <mxPoint x="10" y="700" as="sourcePoint" />
            <mxPoint x="2142" y="680" as="targetPoint" />
          </mxGeometry>
        </mxCell>
        <mxCell id="bDwMY-FAT61xxmsrDLmd-63" value="" style="endArrow=none;dashed=1;html=1;dashPattern=1 3;strokeWidth=2;" edge="1" parent="1">
          <mxGeometry width="50" height="50" relative="1" as="geometry">
            <mxPoint x="10" y="980" as="sourcePoint" />
            <mxPoint x="2160" y="980" as="targetPoint" />
          </mxGeometry>
        </mxCell>
        <mxCell id="bDwMY-FAT61xxmsrDLmd-67" value="" style="edgeStyle=orthogonalEdgeStyle;rounded=0;orthogonalLoop=1;jettySize=auto;html=1;" edge="1" parent="1" source="bDwMY-FAT61xxmsrDLmd-65" target="bDwMY-FAT61xxmsrDLmd-66">
          <mxGeometry relative="1" as="geometry" />
        </mxCell>
        <mxCell id="bDwMY-FAT61xxmsrDLmd-65" value="pushpic infov2" style="rounded=1;whiteSpace=wrap;html=1;" vertex="1" parent="1">
          <mxGeometry x="310" y="1020" width="120" height="60" as="geometry" />
        </mxCell>
        <mxCell id="bDwMY-FAT61xxmsrDLmd-69" value="" style="edgeStyle=orthogonalEdgeStyle;rounded=0;orthogonalLoop=1;jettySize=auto;html=1;" edge="1" parent="1" source="bDwMY-FAT61xxmsrDLmd-66" target="bDwMY-FAT61xxmsrDLmd-68">
          <mxGeometry relative="1" as="geometry" />
        </mxCell>
        <mxCell id="bDwMY-FAT61xxmsrDLmd-72" style="edgeStyle=orthogonalEdgeStyle;rounded=0;orthogonalLoop=1;jettySize=auto;html=1;exitX=1;exitY=0.5;exitDx=0;exitDy=0;" edge="1" parent="1" source="bDwMY-FAT61xxmsrDLmd-66">
          <mxGeometry relative="1" as="geometry">
            <mxPoint x="370" y="1400" as="targetPoint" />
            <Array as="points">
              <mxPoint x="440" y="1190" />
              <mxPoint x="440" y="1400" />
            </Array>
          </mxGeometry>
        </mxCell>
        <mxCell id="bDwMY-FAT61xxmsrDLmd-66" value="is new person" style="rhombus;whiteSpace=wrap;html=1;rounded=1;" vertex="1" parent="1">
          <mxGeometry x="330" y="1150" width="80" height="80" as="geometry" />
        </mxCell>
        <mxCell id="bDwMY-FAT61xxmsrDLmd-71" value="" style="edgeStyle=orthogonalEdgeStyle;rounded=0;orthogonalLoop=1;jettySize=auto;html=1;" edge="1" parent="1" source="bDwMY-FAT61xxmsrDLmd-68" target="bDwMY-FAT61xxmsrDLmd-70">
          <mxGeometry relative="1" as="geometry" />
        </mxCell>
        <mxCell id="bDwMY-FAT61xxmsrDLmd-75" style="edgeStyle=orthogonalEdgeStyle;rounded=0;orthogonalLoop=1;jettySize=auto;html=1;exitX=1;exitY=0.5;exitDx=0;exitDy=0;entryX=0;entryY=0.367;entryDx=0;entryDy=0;entryPerimeter=0;" edge="1" parent="1" source="bDwMY-FAT61xxmsrDLmd-68" target="bDwMY-FAT61xxmsrDLmd-40">
          <mxGeometry relative="1" as="geometry" />
        </mxCell>
        <mxCell id="bDwMY-FAT61xxmsrDLmd-68" value="create person" style="whiteSpace=wrap;html=1;rounded=1;" vertex="1" parent="1">
          <mxGeometry x="310" y="1320" width="120" height="60" as="geometry" />
        </mxCell>
        <mxCell id="bDwMY-FAT61xxmsrDLmd-70" value="return" style="whiteSpace=wrap;html=1;rounded=1;" vertex="1" parent="1">
          <mxGeometry x="310" y="1460" width="120" height="60" as="geometry" />
        </mxCell>
        <mxCell id="bDwMY-FAT61xxmsrDLmd-73" value="N" style="text;html=1;align=center;verticalAlign=middle;resizable=0;points=[];autosize=1;" vertex="1" parent="1">
          <mxGeometry x="410" y="1140" width="20" height="20" as="geometry" />
        </mxCell>
        <mxCell id="bDwMY-FAT61xxmsrDLmd-74" value="Y" style="text;html=1;align=center;verticalAlign=middle;resizable=0;points=[];autosize=1;" vertex="1" parent="1">
          <mxGeometry x="320" y="1260" width="20" height="20" as="geometry" />
        </mxCell>
        <mxCell id="bDwMY-FAT61xxmsrDLmd-76" value="index" style="text;html=1;align=center;verticalAlign=middle;resizable=0;points=[];autosize=1;" vertex="1" parent="1">
          <mxGeometry x="480" y="1270" width="40" height="20" as="geometry" />
        </mxCell>
        <mxCell id="bDwMY-FAT61xxmsrDLmd-77" value="" style="edgeStyle=orthogonalEdgeStyle;rounded=0;orthogonalLoop=1;jettySize=auto;html=1;" edge="1" parent="1" source="bDwMY-FAT61xxmsrDLmd-78" target="bDwMY-FAT61xxmsrDLmd-81">
          <mxGeometry relative="1" as="geometry" />
        </mxCell>
        <mxCell id="bDwMY-FAT61xxmsrDLmd-78" value="pushpic infov2" style="rounded=1;whiteSpace=wrap;html=1;" vertex="1" parent="1">
          <mxGeometry x="990" y="1000" width="120" height="60" as="geometry" />
        </mxCell>
        <mxCell id="bDwMY-FAT61xxmsrDLmd-79" value="" style="edgeStyle=orthogonalEdgeStyle;rounded=0;orthogonalLoop=1;jettySize=auto;html=1;" edge="1" parent="1" source="bDwMY-FAT61xxmsrDLmd-81" target="bDwMY-FAT61xxmsrDLmd-83">
          <mxGeometry relative="1" as="geometry" />
        </mxCell>
        <mxCell id="bDwMY-FAT61xxmsrDLmd-80" style="edgeStyle=orthogonalEdgeStyle;rounded=0;orthogonalLoop=1;jettySize=auto;html=1;exitX=1;exitY=0.5;exitDx=0;exitDy=0;" edge="1" parent="1" source="bDwMY-FAT61xxmsrDLmd-81">
          <mxGeometry relative="1" as="geometry">
            <mxPoint x="1050" y="1400" as="targetPoint" />
            <Array as="points">
              <mxPoint x="1220" y="1170" />
              <mxPoint x="1220" y="1400" />
            </Array>
          </mxGeometry>
        </mxCell>
        <mxCell id="bDwMY-FAT61xxmsrDLmd-81" value="is new person" style="rhombus;whiteSpace=wrap;html=1;rounded=1;" vertex="1" parent="1">
          <mxGeometry x="1010" y="1130" width="80" height="80" as="geometry" />
        </mxCell>
        <mxCell id="bDwMY-FAT61xxmsrDLmd-82" value="" style="edgeStyle=orthogonalEdgeStyle;rounded=0;orthogonalLoop=1;jettySize=auto;html=1;" edge="1" parent="1" source="bDwMY-FAT61xxmsrDLmd-83" target="bDwMY-FAT61xxmsrDLmd-84">
          <mxGeometry relative="1" as="geometry" />
        </mxCell>
        <mxCell id="bDwMY-FAT61xxmsrDLmd-150" style="edgeStyle=orthogonalEdgeStyle;rounded=0;orthogonalLoop=1;jettySize=auto;html=1;exitX=1;exitY=0.5;exitDx=0;exitDy=0;entryX=0;entryY=0.5;entryDx=0;entryDy=0;" edge="1" parent="1" source="bDwMY-FAT61xxmsrDLmd-83" target="bDwMY-FAT61xxmsrDLmd-41">
          <mxGeometry relative="1" as="geometry" />
        </mxCell>
        <mxCell id="bDwMY-FAT61xxmsrDLmd-83" value="create person" style="whiteSpace=wrap;html=1;rounded=1;" vertex="1" parent="1">
          <mxGeometry x="990" y="1300" width="120" height="60" as="geometry" />
        </mxCell>
        <mxCell id="bDwMY-FAT61xxmsrDLmd-84" value="return" style="whiteSpace=wrap;html=1;rounded=1;" vertex="1" parent="1">
          <mxGeometry x="990" y="1440" width="120" height="60" as="geometry" />
        </mxCell>
        <mxCell id="bDwMY-FAT61xxmsrDLmd-85" value="N" style="text;html=1;align=center;verticalAlign=middle;resizable=0;points=[];autosize=1;" vertex="1" parent="1">
          <mxGeometry x="1090" y="1120" width="20" height="20" as="geometry" />
        </mxCell>
        <mxCell id="bDwMY-FAT61xxmsrDLmd-86" value="Y" style="text;html=1;align=center;verticalAlign=middle;resizable=0;points=[];autosize=1;" vertex="1" parent="1">
          <mxGeometry x="1000" y="1240" width="20" height="20" as="geometry" />
        </mxCell>
        <mxCell id="bDwMY-FAT61xxmsrDLmd-87" value="" style="edgeStyle=orthogonalEdgeStyle;rounded=0;orthogonalLoop=1;jettySize=auto;html=1;" edge="1" parent="1" source="bDwMY-FAT61xxmsrDLmd-88">
          <mxGeometry relative="1" as="geometry">
            <mxPoint x="660" y="1160" as="targetPoint" />
          </mxGeometry>
        </mxCell>
        <mxCell id="bDwMY-FAT61xxmsrDLmd-88" value="pushpic info" style="rounded=1;whiteSpace=wrap;html=1;" vertex="1" parent="1">
          <mxGeometry x="600" y="1020" width="120" height="60" as="geometry" />
        </mxCell>
        <mxCell id="bDwMY-FAT61xxmsrDLmd-92" value="" style="edgeStyle=orthogonalEdgeStyle;rounded=0;orthogonalLoop=1;jettySize=auto;html=1;" edge="1" parent="1" source="bDwMY-FAT61xxmsrDLmd-93" target="bDwMY-FAT61xxmsrDLmd-94">
          <mxGeometry relative="1" as="geometry" />
        </mxCell>
        <mxCell id="bDwMY-FAT61xxmsrDLmd-97" style="edgeStyle=orthogonalEdgeStyle;rounded=0;orthogonalLoop=1;jettySize=auto;html=1;exitX=0;exitY=0.5;exitDx=0;exitDy=0;entryX=0.25;entryY=1;entryDx=0;entryDy=0;" edge="1" parent="1" source="bDwMY-FAT61xxmsrDLmd-93" target="bDwMY-FAT61xxmsrDLmd-45">
          <mxGeometry relative="1" as="geometry" />
        </mxCell>
        <mxCell id="bDwMY-FAT61xxmsrDLmd-93" value="create face" style="whiteSpace=wrap;html=1;rounded=1;" vertex="1" parent="1">
          <mxGeometry x="600" y="1160" width="120" height="60" as="geometry" />
        </mxCell>
        <mxCell id="bDwMY-FAT61xxmsrDLmd-94" value="return" style="whiteSpace=wrap;html=1;rounded=1;" vertex="1" parent="1">
          <mxGeometry x="600" y="1300" width="120" height="60" as="geometry" />
        </mxCell>
        <mxCell id="bDwMY-FAT61xxmsrDLmd-98" value="index" style="text;html=1;align=center;verticalAlign=middle;resizable=0;points=[];autosize=1;" vertex="1" parent="1">
          <mxGeometry x="540" y="1160" width="40" height="20" as="geometry" />
        </mxCell>
        <mxCell id="bDwMY-FAT61xxmsrDLmd-99" value="&lt;font style=&quot;font-size: 27px&quot;&gt;DB&lt;/font&gt;" style="text;html=1;align=center;verticalAlign=middle;resizable=0;points=[];autosize=1;strokeWidth=2;" vertex="1" parent="1">
          <mxGeometry x="90" y="710" width="50" height="20" as="geometry" />
        </mxCell>
        <mxCell id="bDwMY-FAT61xxmsrDLmd-100" value="&lt;font style=&quot;font-size: 26px&quot;&gt;seachd&lt;/font&gt;" style="text;html=1;align=center;verticalAlign=middle;resizable=0;points=[];autosize=1;" vertex="1" parent="1">
          <mxGeometry x="70" y="220" width="100" height="20" as="geometry" />
        </mxCell>
        <mxCell id="bDwMY-FAT61xxmsrDLmd-101" value="&lt;font style=&quot;font-size: 24px&quot;&gt;metadatad&lt;/font&gt;" style="text;html=1;align=center;verticalAlign=middle;resizable=0;points=[];autosize=1;" vertex="1" parent="1">
          <mxGeometry x="30" y="990" width="130" height="20" as="geometry" />
        </mxCell>
        <mxCell id="bDwMY-FAT61xxmsrDLmd-102" value="" style="edgeStyle=orthogonalEdgeStyle;rounded=0;orthogonalLoop=1;jettySize=auto;html=1;" edge="1" parent="1" source="bDwMY-FAT61xxmsrDLmd-103">
          <mxGeometry relative="1" as="geometry">
            <mxPoint x="1460" y="1150" as="targetPoint" />
          </mxGeometry>
        </mxCell>
        <mxCell id="bDwMY-FAT61xxmsrDLmd-103" value="pushpic info" style="rounded=1;whiteSpace=wrap;html=1;" vertex="1" parent="1">
          <mxGeometry x="1400" y="1010" width="120" height="60" as="geometry" />
        </mxCell>
        <mxCell id="bDwMY-FAT61xxmsrDLmd-104" value="" style="edgeStyle=orthogonalEdgeStyle;rounded=0;orthogonalLoop=1;jettySize=auto;html=1;" edge="1" parent="1" source="bDwMY-FAT61xxmsrDLmd-105" target="bDwMY-FAT61xxmsrDLmd-106">
          <mxGeometry relative="1" as="geometry" />
        </mxCell>
        <mxCell id="bDwMY-FAT61xxmsrDLmd-105" value="create face" style="whiteSpace=wrap;html=1;rounded=1;" vertex="1" parent="1">
          <mxGeometry x="1400" y="1150" width="120" height="60" as="geometry" />
        </mxCell>
        <mxCell id="bDwMY-FAT61xxmsrDLmd-108" value="" style="edgeStyle=orthogonalEdgeStyle;rounded=0;orthogonalLoop=1;jettySize=auto;html=1;" edge="1" parent="1" source="bDwMY-FAT61xxmsrDLmd-106" target="bDwMY-FAT61xxmsrDLmd-107">
          <mxGeometry relative="1" as="geometry" />
        </mxCell>
        <mxCell id="bDwMY-FAT61xxmsrDLmd-106" value="update assert count" style="whiteSpace=wrap;html=1;rounded=1;" vertex="1" parent="1">
          <mxGeometry x="1400" y="1290" width="120" height="60" as="geometry" />
        </mxCell>
        <mxCell id="bDwMY-FAT61xxmsrDLmd-107" value="return" style="whiteSpace=wrap;html=1;rounded=1;" vertex="1" parent="1">
          <mxGeometry x="1400" y="1430" width="120" height="60" as="geometry" />
        </mxCell>
        <mxCell id="bDwMY-FAT61xxmsrDLmd-109" value="" style="shape=flexArrow;endArrow=classic;html=1;width=11;endSize=8.62;" edge="1" parent="1">
          <mxGeometry width="50" height="50" relative="1" as="geometry">
            <mxPoint x="1560" y="1319.5" as="sourcePoint" />
            <mxPoint x="1660" y="1320" as="targetPoint" />
            <Array as="points">
              <mxPoint x="1600" y="1320" />
            </Array>
          </mxGeometry>
        </mxCell>
        <mxCell id="bDwMY-FAT61xxmsrDLmd-114" value="" style="edgeStyle=orthogonalEdgeStyle;rounded=0;orthogonalLoop=1;jettySize=auto;html=1;" edge="1" parent="1" source="bDwMY-FAT61xxmsrDLmd-112">
          <mxGeometry relative="1" as="geometry">
            <mxPoint x="1730" y="1450" as="targetPoint" />
          </mxGeometry>
        </mxCell>
        <mxCell id="bDwMY-FAT61xxmsrDLmd-136" style="edgeStyle=orthogonalEdgeStyle;rounded=0;orthogonalLoop=1;jettySize=auto;html=1;exitX=1;exitY=0.5;exitDx=0;exitDy=0;" edge="1" parent="1" source="bDwMY-FAT61xxmsrDLmd-112">
          <mxGeometry relative="1" as="geometry">
            <mxPoint x="1730" y="1690" as="targetPoint" />
            <Array as="points">
              <mxPoint x="1970" y="1320" />
              <mxPoint x="1970" y="1690" />
            </Array>
          </mxGeometry>
        </mxCell>
        <mxCell id="bDwMY-FAT61xxmsrDLmd-144" style="edgeStyle=orthogonalEdgeStyle;rounded=0;orthogonalLoop=1;jettySize=auto;html=1;exitX=0;exitY=0;exitDx=0;exitDy=0;entryX=0.5;entryY=1;entryDx=0;entryDy=0;" edge="1" parent="1" source="bDwMY-FAT61xxmsrDLmd-112" target="bDwMY-FAT61xxmsrDLmd-135">
          <mxGeometry relative="1" as="geometry" />
        </mxCell>
        <mxCell id="bDwMY-FAT61xxmsrDLmd-112" value="person assert set already in localcache" style="rhombus;whiteSpace=wrap;html=1;rounded=0;shadow=0;glass=1;sketch=0;strokeWidth=1;" vertex="1" parent="1">
          <mxGeometry x="1690" y="1280" width="80" height="80" as="geometry" />
        </mxCell>
        <mxCell id="bDwMY-FAT61xxmsrDLmd-116" value="" style="edgeStyle=orthogonalEdgeStyle;rounded=0;orthogonalLoop=1;jettySize=auto;html=1;" edge="1" parent="1">
          <mxGeometry relative="1" as="geometry">
            <mxPoint x="1730" y="1510" as="sourcePoint" />
            <mxPoint x="1730" y="1590" as="targetPoint" />
          </mxGeometry>
        </mxCell>
        <mxCell id="bDwMY-FAT61xxmsrDLmd-140" style="edgeStyle=orthogonalEdgeStyle;rounded=0;orthogonalLoop=1;jettySize=auto;html=1;exitX=1;exitY=0.5;exitDx=0;exitDy=0;entryX=1;entryY=0.75;entryDx=0;entryDy=0;" edge="1" parent="1" source="bDwMY-FAT61xxmsrDLmd-118" target="bDwMY-FAT61xxmsrDLmd-53">
          <mxGeometry relative="1" as="geometry">
            <mxPoint x="1830" y="810" as="targetPoint" />
          </mxGeometry>
        </mxCell>
        <mxCell id="bDwMY-FAT61xxmsrDLmd-118" value="get cache" style="rounded=1;whiteSpace=wrap;html=1;shadow=0;glass=0;sketch=0;strokeWidth=1;" vertex="1" parent="1">
          <mxGeometry x="1670" y="1450" width="120" height="60" as="geometry" />
        </mxCell>
        <mxCell id="bDwMY-FAT61xxmsrDLmd-126" value="" style="edgeStyle=orthogonalEdgeStyle;rounded=0;orthogonalLoop=1;jettySize=auto;html=1;" edge="1" parent="1" source="bDwMY-FAT61xxmsrDLmd-124">
          <mxGeometry relative="1" as="geometry">
            <mxPoint x="1730" y="1730" as="targetPoint" />
          </mxGeometry>
        </mxCell>
        <mxCell id="bDwMY-FAT61xxmsrDLmd-142" style="edgeStyle=orthogonalEdgeStyle;rounded=0;orthogonalLoop=1;jettySize=auto;html=1;exitX=1;exitY=0.5;exitDx=0;exitDy=0;entryX=1;entryY=0.5;entryDx=0;entryDy=0;" edge="1" parent="1" source="bDwMY-FAT61xxmsrDLmd-124" target="bDwMY-FAT61xxmsrDLmd-135">
          <mxGeometry relative="1" as="geometry">
            <mxPoint x="1910" y="940" as="targetPoint" />
            <Array as="points">
              <mxPoint x="1910" y="1620" />
              <mxPoint x="1910" y="880" />
            </Array>
          </mxGeometry>
        </mxCell>
        <mxCell id="bDwMY-FAT61xxmsrDLmd-124" value="restore in local cache &amp;amp;&amp;amp; expire time" style="rounded=1;whiteSpace=wrap;html=1;shadow=0;glass=0;sketch=0;strokeWidth=1;" vertex="1" parent="1">
          <mxGeometry x="1670" y="1590" width="120" height="60" as="geometry" />
        </mxCell>
        <mxCell id="bDwMY-FAT61xxmsrDLmd-129" value="" style="edgeStyle=orthogonalEdgeStyle;rounded=0;orthogonalLoop=1;jettySize=auto;html=1;" edge="1" parent="1" source="bDwMY-FAT61xxmsrDLmd-127" target="bDwMY-FAT61xxmsrDLmd-128">
          <mxGeometry relative="1" as="geometry" />
        </mxCell>
        <mxCell id="bDwMY-FAT61xxmsrDLmd-132" style="edgeStyle=orthogonalEdgeStyle;rounded=0;orthogonalLoop=1;jettySize=auto;html=1;exitX=1;exitY=0.5;exitDx=0;exitDy=0;" edge="1" parent="1" source="bDwMY-FAT61xxmsrDLmd-127">
          <mxGeometry relative="1" as="geometry">
            <mxPoint x="1730" y="1950" as="targetPoint" />
            <Array as="points">
              <mxPoint x="1890" y="1770" />
              <mxPoint x="1890" y="1940" />
              <mxPoint x="1730" y="1940" />
            </Array>
          </mxGeometry>
        </mxCell>
        <mxCell id="bDwMY-FAT61xxmsrDLmd-127" value="assert is already in this person" style="rhombus;whiteSpace=wrap;html=1;rounded=0;shadow=0;glass=0;sketch=0;strokeWidth=1;" vertex="1" parent="1">
          <mxGeometry x="1690" y="1730" width="80" height="80" as="geometry" />
        </mxCell>
        <mxCell id="bDwMY-FAT61xxmsrDLmd-131" value="" style="edgeStyle=orthogonalEdgeStyle;rounded=0;orthogonalLoop=1;jettySize=auto;html=1;" edge="1" parent="1" source="bDwMY-FAT61xxmsrDLmd-128" target="bDwMY-FAT61xxmsrDLmd-130">
          <mxGeometry relative="1" as="geometry" />
        </mxCell>
        <mxCell id="bDwMY-FAT61xxmsrDLmd-146" style="edgeStyle=orthogonalEdgeStyle;rounded=0;orthogonalLoop=1;jettySize=auto;html=1;exitX=1;exitY=0.5;exitDx=0;exitDy=0;entryX=1;entryY=0.75;entryDx=0;entryDy=0;" edge="1" parent="1" source="bDwMY-FAT61xxmsrDLmd-128" target="bDwMY-FAT61xxmsrDLmd-41">
          <mxGeometry relative="1" as="geometry">
            <Array as="points">
              <mxPoint x="1850" y="1880" />
              <mxPoint x="1850" y="885" />
            </Array>
          </mxGeometry>
        </mxCell>
        <mxCell id="bDwMY-FAT61xxmsrDLmd-128" value="update assert count" style="rounded=1;whiteSpace=wrap;html=1;shadow=0;glass=0;sketch=0;strokeWidth=1;" vertex="1" parent="1">
          <mxGeometry x="1670" y="1850" width="120" height="60" as="geometry" />
        </mxCell>
        <mxCell id="bDwMY-FAT61xxmsrDLmd-130" value="return" style="whiteSpace=wrap;html=1;rounded=1;shadow=0;strokeWidth=1;glass=0;sketch=0;" vertex="1" parent="1">
          <mxGeometry x="1670" y="1990" width="120" height="60" as="geometry" />
        </mxCell>
        <mxCell id="bDwMY-FAT61xxmsrDLmd-133" value="Y" style="text;html=1;align=center;verticalAlign=middle;resizable=0;points=[];autosize=1;" vertex="1" parent="1">
          <mxGeometry x="1890" y="1780" width="20" height="20" as="geometry" />
        </mxCell>
        <mxCell id="bDwMY-FAT61xxmsrDLmd-134" value="N" style="text;html=1;align=center;verticalAlign=middle;resizable=0;points=[];autosize=1;" vertex="1" parent="1">
          <mxGeometry x="1690" y="1810" width="20" height="20" as="geometry" />
        </mxCell>
        <mxCell id="bDwMY-FAT61xxmsrDLmd-135" value="redis" style="whiteSpace=wrap;html=1;rounded=0;shadow=0;glass=0;sketch=0;strokeWidth=1;" vertex="1" parent="1">
          <mxGeometry x="1530" y="850" width="120" height="60" as="geometry" />
        </mxCell>
        <mxCell id="bDwMY-FAT61xxmsrDLmd-137" value="Y" style="text;html=1;align=center;verticalAlign=middle;resizable=0;points=[];autosize=1;" vertex="1" parent="1">
          <mxGeometry x="1850" y="1290" width="20" height="20" as="geometry" />
        </mxCell>
        <mxCell id="bDwMY-FAT61xxmsrDLmd-138" value="N" style="text;html=1;align=center;verticalAlign=middle;resizable=0;points=[];autosize=1;" vertex="1" parent="1">
          <mxGeometry x="1700" y="1370" width="20" height="20" as="geometry" />
        </mxCell>
        <mxCell id="bDwMY-FAT61xxmsrDLmd-141" value="aggs" style="text;html=1;align=center;verticalAlign=middle;resizable=0;points=[];autosize=1;" vertex="1" parent="1">
          <mxGeometry x="1810" y="1420" width="40" height="20" as="geometry" />
        </mxCell>
        <mxCell id="bDwMY-FAT61xxmsrDLmd-143" value="set" style="text;html=1;align=center;verticalAlign=middle;resizable=0;points=[];autosize=1;" vertex="1" parent="1">
          <mxGeometry x="1815" y="1590" width="30" height="20" as="geometry" />
        </mxCell>
        <mxCell id="bDwMY-FAT61xxmsrDLmd-145" value="get" style="text;html=1;align=center;verticalAlign=middle;resizable=0;points=[];autosize=1;" vertex="1" parent="1">
          <mxGeometry x="1655" y="1270" width="30" height="20" as="geometry" />
        </mxCell>
        <mxCell id="bDwMY-FAT61xxmsrDLmd-147" value="update index" style="text;html=1;align=center;verticalAlign=middle;resizable=0;points=[];autosize=1;" vertex="1" parent="1">
          <mxGeometry x="1850" y="1720" width="80" height="20" as="geometry" />
        </mxCell>
        <mxCell id="bDwMY-FAT61xxmsrDLmd-148" value="&lt;font style=&quot;font-size: 32px&quot;&gt;NOW&lt;/font&gt;" style="text;html=1;align=center;verticalAlign=middle;resizable=0;points=[];autosize=1;" vertex="1" parent="1">
          <mxGeometry x="35" y="55" width="90" height="30" as="geometry" />
        </mxCell>
        <mxCell id="bDwMY-FAT61xxmsrDLmd-149" value="&lt;font style=&quot;font-size: 34px&quot;&gt;after&lt;/font&gt;" style="text;html=1;align=center;verticalAlign=middle;resizable=0;points=[];autosize=1;" vertex="1" parent="1">
          <mxGeometry x="910" y="50" width="80" height="30" as="geometry" />
        </mxCell>
        <mxCell id="bDwMY-FAT61xxmsrDLmd-151" value="index" style="text;html=1;align=center;verticalAlign=middle;resizable=0;points=[];autosize=1;" vertex="1" parent="1">
          <mxGeometry x="1150" y="1270" width="40" height="20" as="geometry" />
        </mxCell>
      </root>
    </mxGraphModel>
  </diagram>
</mxfile>
